<svg xmlns="http://www.w3.org/2000/svg" xmlns:xlink="http://www.w3.org/1999/xlink" version="1.1" width="1000" height="1000" viewBox="0 0 1000 1000" xml:space="preserve">
<desc>Created with Fabric.js 3.5.0</desc>
<defs>
</defs>
<rect x="0" y="0" width="100%" height="100%" fill="#ffffff"/>
<g transform="matrix(-1.8978 0 0 1.8978 501.366 501.366)" id="233513">
<path style="stroke: none; stroke-width: 1; stroke-dasharray: none; stroke-linecap: butt; stroke-dashoffset: 0; stroke-linejoin: miter; stroke-miterlimit: 4; is-custom-font: none; font-file-url: none; fill: rgb(29,138,221); fill-rule: nonzero; opacity: 1;" vector-effect="non-scaling-stroke" transform=" translate(-256, -256)" d="M 75 75 L 41 41 C 25.9 25.9 0 36.6 0 57.9 L 0 168 c 0 13.3 10.7 24 24 24 l 110.1 0 c 21.4 0 32.1 -25.9 17 -41 l -30.8 -30.8 C 155 85.5 203 64 256 64 c 106 0 192 86 192 192 s -86 192 -192 192 c -40.8 0 -78.6 -12.7 -109.7 -34.4 c -14.5 -10.1 -34.4 -6.6 -44.6 7.9 s -6.6 34.4 7.9 44.6 C 151.2 495 201.7 512 256 512 c 141.4 0 256 -114.6 256 -256 S 397.4 0 256 0 C 185.3 0 121.3 28.7 75 75 z m 181 53 c -13.3 0 -24 10.7 -24 24 l 0 104 c 0 6.4 2.5 12.5 7 17 l 72 72 c 9.4 9.4 24.6 9.4 33.9 0 s 9.4 -24.6 0 -33.9 l -65 -65 l 0 -94.1 c 0 -13.3 -10.7 -24 -24 -24 z" stroke-linecap="round"/>
</g>
</svg>