<svg xmlns="http://www.w3.org/2000/svg" xmlns:xlink="http://www.w3.org/1999/xlink" version="1.1" width="1000" height="1000" viewBox="0 0 1000 1000" xml:space="preserve">
<desc>Created with Fabric.js 3.5.0</desc>
<defs>
</defs>
<rect x="0" y="0" width="100%" height="100%" fill="#ffffff"/>
<g transform="matrix(-1.9591 0 0 1.9591 499.9902 499.9906)" id="66904">
<path style="stroke: none; stroke-width: 1; stroke-dasharray: none; stroke-linecap: butt; stroke-dashoffset: 0; stroke-linejoin: miter; stroke-miterlimit: 4; is-custom-font: none; font-file-url: none; fill: rgb(29,138,221); fill-rule: nonzero; opacity: 1;" vector-effect="non-scaling-stroke" transform=" translate(-248.0125, -255.9933)" d="M 48.5 224 L 40 224 c -13.3 0 -24 -10.7 -24 -24 L 16 72 c 0 -9.7 5.8 -18.5 14.8 -22.2 s 19.3 -1.7 26.2 5.2 L 98.6 96.6 c 87.6 -86.5 228.7 -86.2 315.8 1 c 87.5 87.5 87.5 229.3 0 316.8 s -229.3 87.5 -316.8 0 c -12.5 -12.5 -12.5 -32.8 0 -45.3 s 32.8 -12.5 45.3 0 c 62.5 62.5 163.8 62.5 226.3 0 s 62.5 -163.8 0 -226.3 c -62.2 -62.2 -162.7 -62.5 -225.3 -1 L 185 183 c 6.9 6.9 8.9 17.2 5.2 26.2 s -12.5 14.8 -22.2 14.8 L 48.5 224 z" stroke-linecap="round"/>
</g>
</svg>