<svg width="33" height="32" viewBox="0 0 33 32" fill="none" xmlns="http://www.w3.org/2000/svg">
<g filter="url(#filter0_d_431_32)">
<path fill-rule="evenodd" clip-rule="evenodd" d="M26.4835 7.82416L26.9415 8.08347L26.9436 8.08455C27.6887 8.50648 28.0615 8.71758 28.3334 9.01765C28.5741 9.28337 28.7566 9.59861 28.8685 9.94164C28.9949 10.3294 28.996 10.7638 28.9979 11.6334L28.9996 12.3643C29.0015 13.2295 29.0025 13.6647 28.877 14.0528C28.7654 14.3981 28.5828 14.7148 28.3407 14.9821C28.0671 15.2843 27.6903 15.4969 26.9381 15.9212L26.486 16.1762L26.4836 16.1774C26.4149 16.2161 26.3803 16.2356 26.3468 16.256C26.0031 16.4646 25.7137 16.7542 25.5027 17.1002C25.4818 17.1344 25.461 17.1698 25.4208 17.2407C25.3807 17.3113 25.3604 17.3471 25.3417 17.3825C25.1528 17.7412 25.0512 18.1413 25.0453 18.5483C25.0447 18.5886 25.0448 18.6293 25.0462 18.7112L25.0554 19.2706C25.0696 20.1283 25.0768 20.5603 24.9583 20.9479C24.8527 21.2933 24.676 21.6117 24.44 21.8821C24.1739 22.187 23.8051 22.4049 23.0695 22.8394L22.4505 23.2051C21.7092 23.643 21.3375 23.8626 20.943 23.9465C20.5936 24.0208 20.2327 24.0175 19.8844 23.938C19.4906 23.848 19.1224 23.6232 18.3854 23.1729L17.9151 22.8854C17.8611 22.8524 17.8304 22.8336 17.7997 22.8162C17.4512 22.6185 17.0608 22.5087 16.6619 22.4956C16.6218 22.4943 16.581 22.4943 16.4992 22.4943C16.4177 22.4943 16.3769 22.4943 16.3368 22.4956C15.9388 22.5086 15.5507 22.6181 15.2027 22.815C15.1677 22.8349 15.1322 22.8562 15.0622 22.8989L14.6198 23.1686C13.8858 23.6159 13.5184 23.8398 13.1263 23.9295C12.7793 24.0087 12.4198 24.0116 12.0716 23.9382C11.678 23.8553 11.3075 23.6381 10.5661 23.2032L9.94877 22.8411C9.20533 22.405 8.83344 22.1869 8.56518 21.8809C8.32785 21.6102 8.15031 21.2912 8.04409 20.9449C7.92402 20.5534 7.93033 20.1162 7.94482 19.2429L7.95342 18.7242C7.95488 18.6364 7.95549 18.5928 7.95477 18.5496C7.94808 18.1499 7.84988 17.7572 7.66647 17.4037C7.65071 17.3734 7.63363 17.3431 7.60575 17.2936C7.59857 17.2809 7.59066 17.2669 7.58188 17.2512C7.5385 17.1741 7.5168 17.1355 7.4942 17.0983C7.28501 16.7543 6.99813 16.4657 6.65761 16.257C6.62724 16.2384 6.59577 16.2206 6.54277 16.1907C6.5316 16.1843 6.51947 16.1775 6.5062 16.17L6.0581 15.9162C5.31155 15.4935 4.93925 15.2825 4.66718 14.9821C4.42647 14.7164 4.24495 14.4011 4.13307 14.0581C4.00661 13.6704 4.00395 13.2359 4.00201 12.3663L4.00041 11.6508C3.99846 10.7754 3.99835 10.3376 4.12453 9.94724C4.23615 9.60189 4.41901 9.28478 4.66107 9.01745C4.93469 8.71526 5.31073 8.5029 6.06298 8.07857L6.51511 7.82353C6.52787 7.81634 6.53949 7.8098 6.55017 7.80378C6.59843 7.77661 6.62748 7.76025 6.65531 7.74336C6.99896 7.53479 7.2881 7.24542 7.49909 6.89939C7.51513 6.87309 7.53035 6.84618 7.5548 6.80294C7.56217 6.78991 7.57037 6.77541 7.57969 6.759C7.6199 6.68814 7.64003 6.65266 7.65872 6.61718C7.84769 6.25846 7.95095 5.8586 7.95687 5.45161C7.9572 5.42831 7.95656 5.40486 7.9557 5.37337C7.95507 5.35046 7.95432 5.32329 7.95375 5.28883L7.94482 4.7483C7.93043 3.878 7.92407 3.44262 8.04344 3.05219C8.14904 2.70679 8.32547 2.3883 8.56151 2.11787C8.82751 1.81312 9.19594 1.59546 9.93103 1.16119L9.93778 1.15699L10.5476 0.796729L10.5509 0.795238C11.2927 0.357023 11.6635 0.137915 12.0581 0.0540233C12.4076 -0.0202758 12.7682 -0.0180742 13.1165 0.0614815C13.5102 0.151404 13.8792 0.37689 14.6161 0.827183L15.0614 1.09928C15.0751 1.10764 15.0874 1.11519 15.0986 1.12208C15.1451 1.15051 15.1731 1.16767 15.2014 1.18372C15.5499 1.38147 15.9392 1.49095 16.338 1.50401C16.378 1.50532 16.4205 1.50532 16.5016 1.50532C16.5832 1.50532 16.624 1.50532 16.6641 1.50401C17.062 1.49101 17.4505 1.38211 17.7985 1.18518C17.8336 1.16534 17.869 1.14384 17.9389 1.1012L18.3814 0.831534L18.3855 0.829511C19.1174 0.383442 19.4836 0.16028 19.8751 0.0708041C20.2221 -0.00847331 20.5814 -0.0118726 20.9296 0.0614815C21.3232 0.144396 21.694 0.36189 22.4353 0.796729L23.0528 1.15893C23.7962 1.59499 24.1675 1.81329 24.4358 2.11929C24.6731 2.38999 24.8508 2.70898 24.9571 3.0553C25.0766 3.4452 25.0695 3.87965 25.0551 4.74586L25.0462 5.28716C25.0448 5.3701 25.0447 5.41182 25.0453 5.45265C25.0514 5.85881 25.1533 6.25786 25.3417 6.61594C25.3606 6.6519 25.3813 6.68823 25.4219 6.75992C25.433 6.77945 25.4426 6.79636 25.451 6.81132C25.4736 6.85134 25.4883 6.87744 25.5037 6.90265C25.7138 7.24683 26.0016 7.53452 26.3431 7.74274C26.3774 7.76368 26.4124 7.78389 26.4835 7.82416ZM11.4984 12.0001C11.4984 14.812 13.7379 17.0915 16.5004 17.0915C19.2629 17.0915 21.5023 14.812 21.5023 12.0001C21.5023 9.18818 19.2629 6.90867 16.5004 6.90867C13.7379 6.90867 11.4984 9.18818 11.4984 12.0001Z" fill="#D9D9D9"/>
</g>
<defs>
<filter id="filter0_d_431_32" x="0" y="0" width="33" height="32" filterUnits="userSpaceOnUse" color-interpolation-filters="sRGB">
<feFlood flood-opacity="0" result="BackgroundImageFix"/>
<feColorMatrix in="SourceAlpha" type="matrix" values="0 0 0 0 0 0 0 0 0 0 0 0 0 0 0 0 0 0 127 0" result="hardAlpha"/>
<feOffset dy="4"/>
<feGaussianBlur stdDeviation="2"/>
<feComposite in2="hardAlpha" operator="out"/>
<feColorMatrix type="matrix" values="0 0 0 0 0 0 0 0 0 0 0 0 0 0 0 0 0 0 0.25 0"/>
<feBlend mode="normal" in2="BackgroundImageFix" result="effect1_dropShadow_431_32"/>
<feBlend mode="normal" in="SourceGraphic" in2="effect1_dropShadow_431_32" result="shape"/>
</filter>
</defs>
</svg>
