<svg width="28" height="33" viewBox="0 0 28 33" fill="none" xmlns="http://www.w3.org/2000/svg">
<g filter="url(#filter0_d_433_11621)">
<path d="M15.1111 7.33333V0.603553C15.1111 0.380827 15.3804 0.269285 15.5379 0.426777L23.0177 7.90656C23.1752 8.06405 23.0636 8.33333 22.8409 8.33333H16.1111C15.5588 8.33333 15.1111 7.88562 15.1111 7.33333Z" fill="#D9D9D9"/>
<path d="M4 2C4 0.89543 4.89543 0 6 0H13.4722C13.6103 0 13.7222 0.111929 13.7222 0.25V7.72222C13.7222 8.82679 14.6177 9.72222 15.7222 9.72222H23.1944C23.3325 9.72222 23.4444 9.83415 23.4444 9.97222V23C23.4444 24.1046 22.549 25 21.4444 25H6C4.89543 25 4 24.1046 4 23V2Z" fill="#D9D9D9"/>
</g>
<defs>
<filter id="filter0_d_433_11621" x="0" y="0" width="27.4444" height="33" filterUnits="userSpaceOnUse" color-interpolation-filters="sRGB">
<feFlood flood-opacity="0" result="BackgroundImageFix"/>
<feColorMatrix in="SourceAlpha" type="matrix" values="0 0 0 0 0 0 0 0 0 0 0 0 0 0 0 0 0 0 127 0" result="hardAlpha"/>
<feOffset dy="4"/>
<feGaussianBlur stdDeviation="2"/>
<feComposite in2="hardAlpha" operator="out"/>
<feColorMatrix type="matrix" values="0 0 0 0 0 0 0 0 0 0 0 0 0 0 0 0 0 0 0.25 0"/>
<feBlend mode="normal" in2="BackgroundImageFix" result="effect1_dropShadow_433_11621"/>
<feBlend mode="normal" in="SourceGraphic" in2="effect1_dropShadow_433_11621" result="shape"/>
</filter>
</defs>
</svg>
