<svg width="25" height="24" viewBox="0 0 25 24" fill="none" xmlns="http://www.w3.org/2000/svg">
<path d="M6.24923 3.01525C6.24923 1.50581 7.47428 0.280762 8.98372 0.280762H17.7122C18.4372 0.280762 19.1326 0.568274 19.6451 1.08236L24.1984 5.63567C24.7125 6.14819 25 6.84353 25 7.56856V20.9847C25 21.71 24.7119 22.4055 24.1991 22.9183C23.6863 23.4311 22.9907 23.7192 22.2655 23.7192H8.20243C7.89162 23.7192 7.59354 23.5958 7.37376 23.376C7.15398 23.1562 7.03051 22.8581 7.03051 22.5473C7.03051 22.2365 7.15398 21.9384 7.37376 21.7186C7.59354 21.4989 7.89162 21.3754 8.20243 21.3754H22.2655C22.3691 21.3754 22.4685 21.3342 22.5417 21.261C22.615 21.1877 22.6562 21.0883 22.6562 20.9847V9.65615H18.3591C17.6339 9.65615 16.9383 9.36805 16.4255 8.85524C15.9127 8.34242 15.6246 7.64689 15.6246 6.92166V2.62461H8.98372C8.88011 2.62461 8.78075 2.66577 8.70749 2.73902C8.63423 2.81228 8.59307 2.91165 8.59307 3.01525V6.92166C8.59307 7.23247 8.4696 7.53056 8.24983 7.75034C8.03005 7.97011 7.73196 8.09358 7.42115 8.09358C7.11034 8.09358 6.81225 7.97011 6.59247 7.75034C6.3727 7.53056 6.24923 7.23247 6.24923 6.92166V3.01525ZM8.93684 10.7812C9.15657 10.5617 9.45444 10.4385 9.765 10.4385C10.0756 10.4385 10.3734 10.5617 10.5932 10.7812L13.7183 13.9063C13.9377 14.1261 14.061 14.4239 14.061 14.7345C14.061 15.045 13.9377 15.3429 13.7183 15.5626L10.5932 18.6878C10.4499 18.842 10.2677 18.9548 10.0658 19.0142C9.8638 19.0736 9.64955 19.0774 9.4456 19.0253C9.24165 18.9731 9.05554 18.8669 8.90687 18.7179C8.75821 18.5688 8.6525 18.3825 8.60089 18.1784C8.54884 17.9746 8.55257 17.7607 8.61168 17.5589C8.67078 17.3571 8.7831 17.1749 8.93684 17.0315L11.2338 14.7345L8.93684 12.4375C8.71737 12.2178 8.5941 11.9199 8.5941 11.6094C8.5941 11.2988 8.71737 11.0009 8.93684 10.7812ZM5.12418 12.4375L2.82721 14.7345L5.12418 17.0315C5.33144 17.2536 5.44435 17.5475 5.43911 17.8512C5.43386 18.155 5.31086 18.4448 5.09605 18.6596C4.88123 18.8745 4.59139 18.9974 4.28764 19.0027C3.98389 19.0079 3.68997 18.895 3.46786 18.6878L0.342733 15.5626C0.12327 15.3429 0 15.045 0 14.7345C0 14.4239 0.12327 14.1261 0.342733 13.9063L3.46786 10.7812C3.68997 10.5739 3.98389 10.461 4.28764 10.4663C4.59139 10.4715 4.88123 10.5945 5.09605 10.8093C5.31086 11.0241 5.43386 11.314 5.43911 11.6177C5.44435 11.9215 5.33144 12.2154 5.12418 12.4375ZM17.9685 2.72149V6.92166C17.9685 7.13729 18.1435 7.3123 18.3591 7.3123H22.5593L22.5421 7.29199L17.9888 2.73868L17.9685 2.72149Z" fill="white"/>
</svg>
