<svg width="20" height="24" viewBox="0 0 20 24" fill="none" xmlns="http://www.w3.org/2000/svg">
<path d="M12.7273 17.7273C12.7263 18.5291 12.5162 19.3168 12.1176 20.0125C11.719 20.7083 11.1458 21.288 10.4545 21.6943C10.2476 21.7974 10.0091 21.8177 9.78762 21.7511C9.56618 21.6845 9.37843 21.5361 9.26258 21.336C9.14674 21.1358 9.11151 20.8991 9.16406 20.6739C9.21661 20.4487 9.35299 20.252 9.54545 20.1239C9.96223 19.8779 10.3076 19.5274 10.5476 19.1071C10.7876 18.6868 10.9138 18.2112 10.9138 17.7273C10.9138 17.2433 10.7876 16.7677 10.5476 16.3474C10.3076 15.9271 9.96223 15.5767 9.54545 15.3307C9.35299 15.2025 9.21661 15.0058 9.16406 14.7806C9.11151 14.5555 9.14674 14.3187 9.26258 14.1186C9.37843 13.9185 9.56618 13.77 9.78762 13.7034C10.0091 13.6369 10.2476 13.6572 10.4545 13.7602C11.1458 14.1666 11.719 14.7463 12.1176 15.442C12.5162 16.1377 12.7263 16.9254 12.7273 17.7273ZM6.71136 11.8875C6.54527 11.8186 6.36247 11.8005 6.18609 11.8355C6.00971 11.8705 5.84766 11.957 5.72045 12.0841L3.26023 14.5455H0.909091C0.667985 14.5455 0.436754 14.6412 0.266267 14.8117C0.0957791 14.9822 0 15.2134 0 15.4545V20C0 20.2411 0.0957791 20.4723 0.266267 20.6428C0.436754 20.8133 0.667985 20.9091 0.909091 20.9091H3.26023L5.72045 23.3705C5.8476 23.4977 6.00964 23.5844 6.18608 23.6196C6.36253 23.6547 6.54542 23.6367 6.71163 23.5678C6.87783 23.499 7.01986 23.3823 7.11975 23.2327C7.21963 23.0831 7.27287 22.9072 7.27273 22.7273V12.7273C7.27269 12.5475 7.21934 12.3717 7.11942 12.2222C7.01949 12.0728 6.87749 11.9563 6.71136 11.8875ZM20 7.27273V21.8182C20 22.3004 19.8084 22.7629 19.4675 23.1038C19.1265 23.4448 18.664 23.6364 18.1818 23.6364H14.5455C14.3043 23.6364 14.0731 23.5406 13.9026 23.3701C13.7321 23.1996 13.6364 22.9684 13.6364 22.7273C13.6364 22.4862 13.7321 22.2549 13.9026 22.0844C14.0731 21.914 14.3043 21.8182 14.5455 21.8182H18.1818V8.18182H12.7273C12.4862 8.18182 12.2549 8.08604 12.0844 7.91555C11.914 7.74506 11.8182 7.51383 11.8182 7.27273V1.81818H1.81818V10.9091C1.81818 11.1502 1.7224 11.3814 1.55192 11.5519C1.38143 11.7224 1.1502 11.8182 0.909091 11.8182C0.667985 11.8182 0.436754 11.7224 0.266267 11.5519C0.0957791 11.3814 0 11.1502 0 10.9091V1.81818C0 1.33597 0.191558 0.873509 0.532533 0.532533C0.873508 0.191558 1.33597 2.81089e-07 1.81818 2.81089e-07H12.7273C12.8467 -9.36235e-05 12.965 0.0233416 13.0753 0.0689672C13.1857 0.114593 13.286 0.181514 13.3705 0.265909L19.7341 6.62955C19.8185 6.71403 19.8854 6.81432 19.931 6.92468C19.9767 7.03504 20.0001 7.15331 20 7.27273ZM13.6364 6.36364H16.8966L13.6364 3.10341V6.36364Z" fill="white"/>
</svg>
