<svg width="24" height="24" viewBox="0 0 24 24" fill="none" xmlns="http://www.w3.org/2000/svg">
<path fill-rule="evenodd" clip-rule="evenodd" d="M5.89976 18.1404H7.39976V16.5504H5.89976V18.1404ZM2.49976 21.5004H10.8098V13.1904H2.49976V21.5004Z" fill="#FDD700"/>
<path fill-rule="evenodd" clip-rule="evenodd" d="M16.5998 18.1404H18.0998V16.5504H16.5998V18.1404ZM13.1898 21.5004H21.4998V13.1904H13.1898V21.5004Z" fill="#FDD700"/>
<path fill-rule="evenodd" clip-rule="evenodd" d="M14.6941 3.99957H17.1251V2.49957H13.1941V8.11857H14.6941V3.99957Z" fill="#FDD700"/>
<path fill-rule="evenodd" clip-rule="evenodd" d="M13.1948 10.8044H16.9148V9.30437H13.1948V10.8044Z" fill="#FDD700"/>
<path fill-rule="evenodd" clip-rule="evenodd" d="M18.2981 2.49957V3.99957H20.0001V5.70057H21.5001V2.49957H18.2981Z" fill="#FDD700"/>
<path fill-rule="evenodd" clip-rule="evenodd" d="M19.9998 9.30416H18.2978V10.8042H21.4998V6.87416H19.9998V9.30416Z" fill="#FDD700"/>
<path fill-rule="evenodd" clip-rule="evenodd" d="M15.5174 4.86427V8.58327H18.8464V7.08327H17.0174V4.86427H15.5174Z" fill="#FDD700"/>
<path fill-rule="evenodd" clip-rule="evenodd" d="M19.4432 4.85446L17.9432 4.86446V6.36446H19.4432V4.85446Z" fill="#FDD700"/>
<path fill-rule="evenodd" clip-rule="evenodd" d="M5.89976 7.45037H7.39976V5.85037H5.89976V7.45037ZM2.49976 10.8004H10.8098V2.50037H2.49976V10.8004Z" fill="#FDD700"/>
</svg>
