<svg width="20" height="20" viewBox="0 0 20 20" fill="none" xmlns="http://www.w3.org/2000/svg">
<path fill-rule="evenodd" clip-rule="evenodd" d="M14.4444 13.3333C15.8956 13.3333 17.1311 14.2611 17.5889 15.5556H18.8889C19.1836 15.5556 19.4662 15.6726 19.6746 15.881C19.8829 16.0894 20 16.372 20 16.6667C20 16.9614 19.8829 17.244 19.6746 17.4523C19.4662 17.6607 19.1836 17.7778 18.8889 17.7778H17.5889C17.3593 18.4284 16.9336 18.9917 16.3704 19.3902C15.8073 19.7887 15.1343 20.0027 14.4444 20.0027C13.7545 20.0027 13.0816 19.7887 12.5184 19.3902C11.9553 18.9917 11.5296 18.4284 11.3 17.7778H1.11111C0.816426 17.7778 0.533811 17.6607 0.325437 17.4523C0.117063 17.244 0 16.9614 0 16.6667C0 16.372 0.117063 16.0894 0.325437 15.881C0.533811 15.6726 0.816426 15.5556 1.11111 15.5556H11.3C11.5299 14.9054 11.9557 14.3425 12.5189 13.9445C13.0821 13.5465 13.7548 13.333 14.4444 13.3333ZM14.4444 15.5556C14.1498 15.5556 13.8671 15.6726 13.6588 15.881C13.4504 16.0894 13.3333 16.372 13.3333 16.6667C13.3333 16.9614 13.4504 17.244 13.6588 17.4523C13.8671 17.6607 14.1498 17.7778 14.4444 17.7778C14.7391 17.7778 15.0217 17.6607 15.2301 17.4523C15.4385 17.244 15.5556 16.9614 15.5556 16.6667C15.5556 16.372 15.4385 16.0894 15.2301 15.881C15.0217 15.6726 14.7391 15.5556 14.4444 15.5556ZM5.55556 6.66667C6.20999 6.66658 6.84997 6.85913 7.3957 7.22032C7.94144 7.58151 8.36878 8.09535 8.62444 8.69778L8.69889 8.88889H18.8889C19.1721 8.8892 19.4445 8.99764 19.6504 9.19205C19.8563 9.38646 19.9803 9.65217 19.9969 9.93488C20.0135 10.2176 19.9215 10.496 19.7397 10.7131C19.5579 10.9303 19.3001 11.0699 19.0189 11.1033L18.8889 11.1111H8.7C8.476 11.7448 8.06575 12.2959 7.52304 12.6924C6.98032 13.0888 6.33049 13.312 5.65872 13.3326C4.98696 13.3533 4.32464 13.1705 3.75859 12.8081C3.19254 12.4458 2.74919 11.9209 2.48667 11.3022L2.41111 11.1111H1.11111C0.827912 11.1108 0.55552 11.0024 0.349591 10.8079C0.143662 10.6135 0.0197389 10.3478 0.00314209 10.0651C-0.0134547 9.7824 0.0785273 9.50402 0.260294 9.28685C0.442061 9.06968 0.699893 8.93012 0.981111 8.89667L1.11111 8.88889H2.41111C2.64098 8.23872 3.06685 7.67584 3.63002 7.27784C4.19319 6.87984 4.86594 6.66631 5.55556 6.66667ZM5.55556 8.88889C5.26087 8.88889 4.97826 9.00595 4.76988 9.21433C4.56151 9.4227 4.44444 9.70532 4.44444 10C4.44444 10.2947 4.56151 10.5773 4.76988 10.7857C4.97826 10.994 5.26087 11.1111 5.55556 11.1111C5.85024 11.1111 6.13286 10.994 6.34123 10.7857C6.5496 10.5773 6.66667 10.2947 6.66667 10C6.66667 9.70532 6.5496 9.4227 6.34123 9.21433C6.13286 9.00595 5.85024 8.88889 5.55556 8.88889ZM14.4444 4.58304e-07C15.8956 4.58304e-07 17.1311 0.927778 17.5889 2.22222H18.8889C19.1836 2.22222 19.4662 2.33929 19.6746 2.54766C19.8829 2.75603 20 3.03865 20 3.33333C20 3.62802 19.8829 3.91063 19.6746 4.11901C19.4662 4.32738 19.1836 4.44445 18.8889 4.44445H17.5889C17.3593 5.09504 16.9336 5.65841 16.3704 6.0569C15.8073 6.4554 15.1343 6.66939 14.4444 6.66939C13.7545 6.66939 13.0816 6.4554 12.5184 6.0569C11.9553 5.65841 11.5296 5.09504 11.3 4.44445H1.11111C0.816426 4.44445 0.533811 4.32738 0.325437 4.11901C0.117063 3.91063 0 3.62802 0 3.33333C0 3.03865 0.117063 2.75603 0.325437 2.54766C0.533811 2.33929 0.816426 2.22222 1.11111 2.22222H11.3C11.5299 1.57205 11.9557 1.00917 12.5189 0.611174C13.0821 0.213173 13.7548 -0.000361067 14.4444 4.58304e-07ZM14.4444 2.22222C14.1498 2.22222 13.8671 2.33929 13.6588 2.54766C13.4504 2.75603 13.3333 3.03865 13.3333 3.33333C13.3333 3.62802 13.4504 3.91063 13.6588 4.11901C13.8671 4.32738 14.1498 4.44445 14.4444 4.44445C14.7391 4.44445 15.0217 4.32738 15.2301 4.11901C15.4385 3.91063 15.5556 3.62802 15.5556 3.33333C15.5556 3.03865 15.4385 2.75603 15.2301 2.54766C15.0217 2.33929 14.7391 2.22222 14.4444 2.22222Z" fill="#FDD700"/>
</svg>
