<svg width="25" height="24" viewBox="0 0 25 24" fill="none" xmlns="http://www.w3.org/2000/svg">
<path d="M6.24923 2.73449C6.24923 1.22505 7.47428 0 8.98371 0H17.7122C18.4372 0 19.1326 0.287512 19.6451 0.801596L24.1984 5.35491C24.7125 5.86743 25 6.56277 25 7.2878V20.704C25 21.4292 24.7119 22.1247 24.1991 22.6376C23.6863 23.1504 22.9907 23.4385 22.2655 23.4385H8.20243C7.89162 23.4385 7.59354 23.315 7.37376 23.0952C7.15398 22.8754 7.03051 22.5774 7.03051 22.2665C7.03051 21.9557 7.15398 21.6576 7.37376 21.4379C7.59354 21.2181 7.89162 21.0946 8.20243 21.0946H22.2655C22.3691 21.0946 22.4685 21.0535 22.5417 20.9802C22.615 20.9069 22.6562 20.8076 22.6562 20.704V9.37539H18.3591C17.6339 9.37539 16.9383 9.08729 16.4255 8.57447C15.9127 8.06166 15.6246 7.36613 15.6246 6.6409V2.34385H8.98371C8.88011 2.34385 8.78075 2.385 8.70749 2.45826C8.63423 2.53152 8.59307 2.63088 8.59307 2.73449V6.6409C8.59307 6.95171 8.4696 7.2498 8.24983 7.46957C8.03005 7.68935 7.73196 7.81282 7.42115 7.81282C7.11034 7.81282 6.81225 7.68935 6.59248 7.46957C6.3727 7.2498 6.24923 6.95171 6.24923 6.6409V2.73449ZM8.93684 10.5004C9.15657 10.281 9.45444 10.1577 9.765 10.1577C10.0756 10.1577 10.3734 10.281 10.5932 10.5004L13.7183 13.6256C13.9377 13.8453 14.061 14.1432 14.061 14.4537C14.061 14.7643 13.9377 15.0621 13.7183 15.2819L10.5932 18.407C10.4499 18.5613 10.2677 18.674 10.0658 18.7334C9.86379 18.7928 9.64955 18.7967 9.4456 18.7445C9.24165 18.6924 9.05554 18.5862 8.90688 18.4371C8.75821 18.2881 8.6525 18.1017 8.60089 17.8976C8.54884 17.6939 8.55257 17.4799 8.61168 17.2781C8.67078 17.0763 8.7831 16.8941 8.93684 16.7507L11.2338 14.4537L8.93684 12.1568C8.71737 11.937 8.5941 11.6392 8.5941 11.3286C8.5941 11.018 8.71737 10.7202 8.93684 10.5004ZM5.12418 12.1568L2.82721 14.4537L5.12418 16.7507C5.33144 16.9728 5.44435 17.2667 5.43911 17.5705C5.43386 17.8742 5.31086 18.1641 5.09605 18.3789C4.88123 18.5937 4.59139 18.7167 4.28764 18.7219C3.98389 18.7272 3.68997 18.6143 3.46786 18.407L0.342733 15.2819C0.12327 15.0621 0 14.7643 0 14.4537C0 14.1432 0.12327 13.8453 0.342733 13.6256L3.46786 10.5004C3.68997 10.2932 3.98389 10.1803 4.28764 10.1855C4.59139 10.1908 4.88123 10.3137 5.09605 10.5286C5.31086 10.7434 5.43386 11.0332 5.43911 11.337C5.44435 11.6407 5.33144 11.9346 5.12418 12.1568ZM17.9685 2.44073V6.6409C17.9685 6.85653 18.1435 7.03154 18.3591 7.03154H22.5593L22.5421 7.01123L17.9888 2.45791L17.9685 2.44073Z" fill="#FDD700"/>
</svg>
