<svg width="78" height="78" viewBox="0 0 78 78" fill="none" xmlns="http://www.w3.org/2000/svg">
<g filter="url(#filter0_d_58_826)">
<circle cx="39" cy="35" r="35" fill="#797979"/>
</g>
<g filter="url(#filter1_i_58_826)">
<circle cx="39" cy="35" r="30.625" fill="#A90000"/>
</g>
<g filter="url(#filter2_d_58_826)">
<path d="M23.3138 40.112C22.4925 40.112 21.7565 39.9787 21.1058 39.712C20.4551 39.4453 19.9325 39.0507 19.5378 38.528C19.1538 38.0053 18.9511 37.376 18.9298 36.64H21.8418C21.8845 37.056 22.0285 37.376 22.2738 37.6C22.5191 37.8133 22.8391 37.92 23.2338 37.92C23.6391 37.92 23.9591 37.8293 24.1938 37.648C24.4285 37.456 24.5458 37.1947 24.5458 36.864C24.5458 36.5867 24.4498 36.3573 24.2578 36.176C24.0765 35.9947 23.8471 35.8453 23.5698 35.728C23.3031 35.6107 22.9191 35.4773 22.4178 35.328C21.6925 35.104 21.1005 34.88 20.6418 34.656C20.1831 34.432 19.7885 34.1013 19.4578 33.664C19.1271 33.2267 18.9618 32.656 18.9618 31.952C18.9618 30.9067 19.3405 30.0907 20.0978 29.504C20.8551 28.9067 21.8418 28.608 23.0578 28.608C24.2951 28.608 25.2925 28.9067 26.0498 29.504C26.8071 30.0907 27.2125 30.912 27.2658 31.968H24.3058C24.2845 31.6053 24.1511 31.3227 23.9058 31.12C23.6605 30.9067 23.3458 30.8 22.9618 30.8C22.6311 30.8 22.3645 30.8907 22.1618 31.072C21.9591 31.2427 21.8578 31.4933 21.8578 31.824C21.8578 32.1867 22.0285 32.4693 22.3698 32.672C22.7111 32.8747 23.2445 33.0933 23.9698 33.328C24.6951 33.5733 25.2818 33.808 25.7298 34.032C26.1885 34.256 26.5831 34.5813 26.9138 35.008C27.2445 35.4347 27.4098 35.984 27.4098 36.656C27.4098 37.296 27.2445 37.8773 26.9138 38.4C26.5938 38.9227 26.1245 39.3387 25.5058 39.648C24.8871 39.9573 24.1565 40.112 23.3138 40.112ZM37.1736 28.768V30.96H34.1976V40H31.4616V30.96H28.4856V28.768H37.1736ZM43.8587 40.112C42.8027 40.112 41.832 39.8667 40.9467 39.376C40.072 38.8853 39.3734 38.2027 38.8507 37.328C38.3387 36.4427 38.0827 35.4507 38.0827 34.352C38.0827 33.2533 38.3387 32.2667 38.8507 31.392C39.3734 30.5173 40.072 29.8347 40.9467 29.344C41.832 28.8533 42.8027 28.608 43.8587 28.608C44.9147 28.608 45.88 28.8533 46.7547 29.344C47.64 29.8347 48.3334 30.5173 48.8347 31.392C49.3467 32.2667 49.6027 33.2533 49.6027 34.352C49.6027 35.4507 49.3467 36.4427 48.8347 37.328C48.3227 38.2027 47.6294 38.8853 46.7547 39.376C45.88 39.8667 44.9147 40.112 43.8587 40.112ZM43.8587 37.616C44.7547 37.616 45.4694 37.3173 46.0027 36.72C46.5467 36.1227 46.8187 35.3333 46.8187 34.352C46.8187 33.36 46.5467 32.5707 46.0027 31.984C45.4694 31.3867 44.7547 31.088 43.8587 31.088C42.952 31.088 42.2267 31.3813 41.6827 31.968C41.1494 32.5547 40.8827 33.3493 40.8827 34.352C40.8827 35.344 41.1494 36.1387 41.6827 36.736C42.2267 37.3227 42.952 37.616 43.8587 37.616ZM59.6848 32.384C59.6848 33.0347 59.5355 33.632 59.2368 34.176C58.9381 34.7093 58.4795 35.1413 57.8608 35.472C57.2421 35.8027 56.4741 35.968 55.5568 35.968H53.8608V40H51.1248V28.768H55.5568C56.4528 28.768 57.2101 28.9227 57.8288 29.232C58.4475 29.5413 58.9115 29.968 59.2208 30.512C59.5301 31.056 59.6848 31.68 59.6848 32.384ZM55.3488 33.792C55.8715 33.792 56.2608 33.6693 56.5168 33.424C56.7728 33.1787 56.9008 32.832 56.9008 32.384C56.9008 31.936 56.7728 31.5893 56.5168 31.344C56.2608 31.0987 55.8715 30.976 55.3488 30.976H53.8608V33.792H55.3488Z" fill="#D9D9D9"/>
</g>
<defs>
<filter id="filter0_d_58_826" x="0" y="0" width="78" height="78" filterUnits="userSpaceOnUse" color-interpolation-filters="sRGB">
<feFlood flood-opacity="0" result="BackgroundImageFix"/>
<feColorMatrix in="SourceAlpha" type="matrix" values="0 0 0 0 0 0 0 0 0 0 0 0 0 0 0 0 0 0 127 0" result="hardAlpha"/>
<feOffset dy="4"/>
<feGaussianBlur stdDeviation="2"/>
<feComposite in2="hardAlpha" operator="out"/>
<feColorMatrix type="matrix" values="0 0 0 0 0.75 0 0 0 0 0.75 0 0 0 0 0.75 0 0 0 0.25 0"/>
<feBlend mode="normal" in2="BackgroundImageFix" result="effect1_dropShadow_58_826"/>
<feBlend mode="normal" in="SourceGraphic" in2="effect1_dropShadow_58_826" result="shape"/>
</filter>
<filter id="filter1_i_58_826" x="8.375" y="4.375" width="61.25" height="65.25" filterUnits="userSpaceOnUse" color-interpolation-filters="sRGB">
<feFlood flood-opacity="0" result="BackgroundImageFix"/>
<feBlend mode="normal" in="SourceGraphic" in2="BackgroundImageFix" result="shape"/>
<feColorMatrix in="SourceAlpha" type="matrix" values="0 0 0 0 0 0 0 0 0 0 0 0 0 0 0 0 0 0 127 0" result="hardAlpha"/>
<feOffset dy="4"/>
<feGaussianBlur stdDeviation="2"/>
<feComposite in2="hardAlpha" operator="arithmetic" k2="-1" k3="1"/>
<feColorMatrix type="matrix" values="0 0 0 0 0 0 0 0 0 0 0 0 0 0 0 0 0 0 0.25 0"/>
<feBlend mode="normal" in2="shape" result="effect1_innerShadow_58_826"/>
</filter>
<filter id="filter2_d_58_826" x="14.9298" y="28.608" width="48.755" height="19.504" filterUnits="userSpaceOnUse" color-interpolation-filters="sRGB">
<feFlood flood-opacity="0" result="BackgroundImageFix"/>
<feColorMatrix in="SourceAlpha" type="matrix" values="0 0 0 0 0 0 0 0 0 0 0 0 0 0 0 0 0 0 127 0" result="hardAlpha"/>
<feOffset dy="4"/>
<feGaussianBlur stdDeviation="2"/>
<feComposite in2="hardAlpha" operator="out"/>
<feColorMatrix type="matrix" values="0 0 0 0 0 0 0 0 0 0 0 0 0 0 0 0 0 0 0.25 0"/>
<feBlend mode="normal" in2="BackgroundImageFix" result="effect1_dropShadow_58_826"/>
<feBlend mode="normal" in="SourceGraphic" in2="effect1_dropShadow_58_826" result="shape"/>
</filter>
</defs>
</svg>
