<svg width="33" height="33" viewBox="0 0 33 33" fill="none" xmlns="http://www.w3.org/2000/svg">
<g filter="url(#filter0_d_433_11587)">
<path d="M16.5 12L15.8039 11.2821L16.5 10.607L17.1961 11.2821L16.5 12ZM17.5 24C17.5 24.5523 17.0523 25 16.5 25C15.9477 25 15.5 24.5523 15.5 24L17.5 24ZM10.3039 16.6154L15.8039 11.2821L17.1961 12.7179L11.6961 18.0512L10.3039 16.6154ZM17.1961 11.2821L22.6961 16.6154L21.3039 18.0512L15.8039 12.7179L17.1961 11.2821ZM17.5 12L17.5 24L15.5 24L15.5 12L17.5 12Z" fill="#E6E6E6"/>
<path fill-rule="evenodd" clip-rule="evenodd" d="M22.1062 13.8889L17.9142 9.69691L16.5 8.2827L15.0858 9.69691L10.8938 13.8889H8.16667C5.86548 13.8889 4 12.0234 4 9.72221C4 7.42102 5.86548 5.55554 8.16667 5.55554C8.80047 5.55554 9.11737 5.55554 9.34121 5.43347C9.39373 5.40482 9.41967 5.38803 9.46731 5.35184C9.67034 5.19762 9.83397 4.83303 10.1612 4.10386L10.1612 4.10386C11.2469 1.68481 13.6767 0 16.5 0C19.2853 0 21.6876 1.63974 22.7942 4.00653L22.7942 4.00656C23.1796 4.83077 23.3723 5.24288 23.618 5.39921C23.8636 5.55554 24.2226 5.55554 24.9404 5.55554H25C27.2091 5.55554 29 7.3464 29 9.55554V9.88887C29 12.098 27.2091 13.8889 25 13.8889H22.1062Z" fill="#E6E6E6"/>
</g>
<defs>
<filter id="filter0_d_433_11587" x="0" y="0" width="33" height="33" filterUnits="userSpaceOnUse" color-interpolation-filters="sRGB">
<feFlood flood-opacity="0" result="BackgroundImageFix"/>
<feColorMatrix in="SourceAlpha" type="matrix" values="0 0 0 0 0 0 0 0 0 0 0 0 0 0 0 0 0 0 127 0" result="hardAlpha"/>
<feOffset dy="4"/>
<feGaussianBlur stdDeviation="2"/>
<feComposite in2="hardAlpha" operator="out"/>
<feColorMatrix type="matrix" values="0 0 0 0 0 0 0 0 0 0 0 0 0 0 0 0 0 0 0.25 0"/>
<feBlend mode="normal" in2="BackgroundImageFix" result="effect1_dropShadow_433_11587"/>
<feBlend mode="normal" in="SourceGraphic" in2="effect1_dropShadow_433_11587" result="shape"/>
</filter>
</defs>
</svg>
