<svg width="20" height="19" viewBox="0 0 20 19" fill="none" xmlns="http://www.w3.org/2000/svg">
<path d="M9.6 10.4V16.8H1.6V10.4H9.6ZM9.6 8.8H1.6C1.17565 8.8 0.768687 8.96857 0.468629 9.26863C0.168571 9.56869 0 9.97565 0 10.4V16.8C0 17.2243 0.168571 17.6313 0.468629 17.9314C0.768687 18.2314 1.17565 18.4 1.6 18.4H9.6C10.0243 18.4 10.4313 18.2314 10.7314 17.9314C11.0314 17.6313 11.2 17.2243 11.2 16.8V10.4C11.2 9.97565 11.0314 9.56869 10.7314 9.26863C10.4313 8.96857 10.0243 8.8 9.6 8.8ZM18.4 1.6V5.6H10.4V1.6H18.4ZM18.4 0H10.4C9.97565 0 9.56869 0.168571 9.26863 0.468629C8.96857 0.768687 8.8 1.17565 8.8 1.6V5.6C8.8 6.02435 8.96857 6.43131 9.26863 6.73137C9.56869 7.03143 9.97565 7.2 10.4 7.2H18.4C18.8243 7.2 19.2313 7.03143 19.5314 6.73137C19.8314 6.43131 20 6.02435 20 5.6V1.6C20 1.17565 19.8314 0.768687 19.5314 0.468629C19.2313 0.168571 18.8243 0 18.4 0ZM18.4 10.4V14.4H14.4V10.4H18.4ZM18.4 8.8H14.4C13.9757 8.8 13.5687 8.96857 13.2686 9.26863C12.9686 9.56869 12.8 9.97565 12.8 10.4V14.4C12.8 14.8243 12.9686 15.2313 13.2686 15.5314C13.5687 15.8314 13.9757 16 14.4 16H18.4C18.8243 16 19.2313 15.8314 19.5314 15.5314C19.8314 15.2313 20 14.8243 20 14.4V10.4C20 9.97565 19.8314 9.56869 19.5314 9.26863C19.2313 8.96857 18.8243 8.8 18.4 8.8ZM5.6 1.6V5.6H1.6V1.6H5.6ZM5.6 0H1.6C1.17565 0 0.768687 0.168571 0.468629 0.468629C0.168571 0.768687 0 1.17565 0 1.6V5.6C0 6.02435 0.168571 6.43131 0.468629 6.73137C0.768687 7.03143 1.17565 7.2 1.6 7.2H5.6C6.02435 7.2 6.43131 7.03143 6.73137 6.73137C7.03143 6.43131 7.2 6.02435 7.2 5.6V1.6C7.2 1.17565 7.03143 0.768687 6.73137 0.468629C6.43131 0.168571 6.02435 0 5.6 0Z" fill="#1A1A1A"/>
</svg>
