<svg width="124" height="40" viewBox="0 0 124 40" fill="none" xmlns="http://www.w3.org/2000/svg">
<g clip-path="url(#clip0_417_86)">
<path d="M49.2554 34.0431C43.3415 28.1662 37.4277 22.2831 31.52 16.4062C31.4523 16.3385 31.3662 16.3015 31.2738 16.3015C31.1815 16.3015 31.0892 16.3385 31.0277 16.4062C24.9169 22.5292 18.8062 28.6523 12.6954 34.7754C8.86154 36.1969 5.02769 37.6123 1.2 39.0338C1.12 39.0646 1.05846 39.12 1.01538 39.1877C0.972308 39.2615 0.96 39.3415 0.978462 39.4277C0.990769 39.5077 1.04 39.5815 1.10154 39.6369C1.16308 39.6923 1.24923 39.7169 1.32923 39.7169L17.6123 39.4892C17.7046 39.4892 17.7908 39.4523 17.8585 39.3846C22.3323 34.88 26.8062 30.3815 31.28 25.8769C34.1477 28.7631 37.0215 31.6554 39.8892 34.5415C39.9569 34.6092 40.0431 34.6462 40.1415 34.6462H49.0154C49.0831 34.6462 49.1508 34.6277 49.2123 34.5846C49.2677 34.5477 49.3169 34.4923 49.3415 34.4246C49.3661 34.3631 49.3723 34.2892 49.36 34.2215C49.3477 34.1538 49.3108 34.0923 49.2615 34.0431H49.2554Z" fill="url(#paint0_linear_417_86)"/>
<path d="M96.3077 15.4215L92.8554 19.2123C92.7938 19.28 92.7631 19.36 92.7631 19.4523V25.76C92.7631 25.8523 92.8 25.9446 92.8677 26.0062C92.9354 26.0677 93.0215 26.1108 93.1138 26.1108H96.5661C96.6585 26.1108 96.7508 26.0738 96.8123 26.0062C96.88 25.9385 96.9169 25.8523 96.9169 25.76V15.6615C96.9169 15.5877 96.8985 15.52 96.8554 15.4646C96.8123 15.4031 96.7569 15.36 96.6892 15.3354C96.6215 15.3108 96.5477 15.3046 96.48 15.3231C96.4123 15.3415 96.3508 15.3785 96.3015 15.4277L96.3077 15.4215Z" fill="url(#paint1_linear_417_86)"/>
<path d="M106 7.04615H100.24C100.148 7.04615 100.055 7.08308 99.9938 7.15077C99.9323 7.21846 99.8892 7.30462 99.8892 7.39692V25.7538C99.8892 25.8462 99.9262 25.9385 99.9938 26C100.062 26.0677 100.148 26.1046 100.24 26.1046H112.886C112.978 26.1046 113.071 26.0677 113.132 26C113.2 25.9323 113.237 25.8462 113.237 25.7538V21.76C113.237 21.6615 113.194 21.5631 113.12 21.5015C111.969 20.4615 110.818 19.4215 109.668 18.3877C109.618 18.3446 109.557 18.3138 109.489 18.3015C109.422 18.2892 109.354 18.3015 109.292 18.3262C109.231 18.3508 109.175 18.4 109.138 18.4554C109.102 18.5108 109.083 18.5785 109.083 18.6462V21.6062H104.049V11.5508H106.006C106.098 11.5508 106.191 11.5138 106.252 11.4462C106.32 11.3785 106.357 11.2923 106.357 11.2V7.40308C106.357 7.31077 106.32 7.21846 106.252 7.15692C106.185 7.09538 106.098 7.05231 106.006 7.05231L106 7.04615Z" fill="url(#paint2_linear_417_86)"/>
<path d="M113.083 7.04615H109.428C109.335 7.04615 109.243 7.08308 109.182 7.15077C109.12 7.21846 109.077 7.30462 109.077 7.39692V12.8492C109.077 12.9477 109.12 13.04 109.194 13.1077C110.345 14.1538 111.495 15.2062 112.646 16.2523C112.695 16.2954 112.757 16.3262 112.825 16.3385C112.892 16.3508 112.96 16.3385 113.022 16.3138C113.083 16.2892 113.138 16.24 113.175 16.1846C113.212 16.1292 113.231 16.0615 113.231 15.9938V13.8831C115.126 15.7908 117.022 17.7046 118.917 19.6123V25.7477C118.917 25.84 118.954 25.9323 119.022 25.9938C119.089 26.0615 119.175 26.0985 119.268 26.0985H122.72C122.812 26.0985 122.905 26.0615 122.966 25.9938C123.034 25.9262 123.071 25.84 123.071 25.7477V7.39692C123.071 7.30462 123.034 7.21231 122.966 7.15077C122.898 7.08923 122.812 7.04615 122.72 7.04615H119.268C119.175 7.04615 119.083 7.08308 119.022 7.15077C118.96 7.21846 118.917 7.30462 118.917 7.39692V12.7754C117.058 10.8985 115.194 9.02154 113.335 7.15077C113.268 7.08308 113.182 7.04615 113.083 7.04615Z" fill="url(#paint3_linear_417_86)"/>
<path d="M96.5723 7.04615H93.12C93.0277 7.04615 92.9354 7.08308 92.8738 7.15077C92.8061 7.21846 92.7692 7.30461 92.7692 7.39692V13.0892C92.7692 13.1631 92.7877 13.2308 92.8308 13.2862C92.8738 13.3477 92.9292 13.3908 92.9969 13.4154C93.0646 13.44 93.1385 13.4462 93.2062 13.4277C93.2738 13.4092 93.3354 13.3723 93.3846 13.3231C94.5354 12.0615 95.6861 10.8 96.8369 9.53846C96.8985 9.47077 96.9292 9.39077 96.9292 9.29846V7.39077C96.9292 7.29846 96.8923 7.20615 96.8246 7.14461C96.7569 7.08308 96.6708 7.04 96.5785 7.04L96.5723 7.04615Z" fill="url(#paint4_linear_417_86)"/>
<path d="M89.7661 7.04615H76.2277C76.1354 7.04615 76.0431 7.08308 75.9815 7.15077C75.9138 7.21846 75.8769 7.30462 75.8769 7.39692V11.1938C75.8769 11.2862 75.9138 11.3785 75.9815 11.44C76.0492 11.5015 76.1354 11.5446 76.2277 11.5446H81.0092V25.7477C81.0092 25.84 81.0461 25.9323 81.1138 25.9938C81.1815 26.0615 81.2677 26.0985 81.36 26.0985H81.5692C81.6677 26.0985 81.76 26.0554 81.8277 25.9815C82.9108 24.7938 83.9877 23.6123 85.0708 22.4246C85.1323 22.3569 85.1631 22.2769 85.1631 22.1846V11.5323H89.7661C89.8585 11.5323 89.9508 11.4954 90.0123 11.4277C90.08 11.36 90.1169 11.2738 90.1169 11.1815V7.38461C90.1169 7.29231 90.08 7.2 90.0123 7.13846C89.9446 7.07692 89.8585 7.03385 89.7661 7.03385V7.04615Z" fill="url(#paint5_linear_417_86)"/>
<path d="M52.0185 7.04615H48.3631C48.2708 7.04615 48.1785 7.08308 48.1169 7.15077C48.0554 7.21846 48.0123 7.30462 48.0123 7.39692V25.7538C48.0123 25.8462 48.0492 25.9385 48.1169 26C48.1846 26.0677 48.2708 26.1046 48.3631 26.1046H51.8154C51.9077 26.1046 52 26.0677 52.0615 26C52.1292 25.9323 52.1661 25.8462 52.1661 25.7538V13.8892C53.7908 15.5262 55.4092 17.1569 57.0338 18.7938C57.1015 18.8615 57.1938 18.8985 57.2923 18.8985C57.3908 18.8985 57.4831 18.8554 57.5446 18.7815C59.7415 16.3692 61.9446 13.9631 64.1415 11.5508H66.7877C66.88 11.5508 66.9723 11.5138 67.0338 11.4462C67.1015 11.3785 67.1385 11.2923 67.1385 11.2V7.40308C67.1385 7.31077 67.1015 7.21846 67.0338 7.15692C66.9661 7.09538 66.88 7.05231 66.7877 7.05231H62.1661C62.0677 7.05231 61.9754 7.09538 61.9077 7.16923C60.3692 8.85538 58.8369 10.5354 57.2985 12.2215C55.6246 10.5354 53.9508 8.84308 52.2769 7.15692C52.2092 7.08923 52.1231 7.05231 52.0246 7.05231L52.0185 7.04615Z" fill="url(#paint6_linear_417_86)"/>
<path d="M73.7292 7.04615H69.1754C69.0831 7.04615 68.9908 7.08308 68.9292 7.15077C68.8677 7.21846 68.8246 7.30462 68.8246 7.39692V11.1938C68.8246 11.2862 68.8615 11.3785 68.9292 11.44C68.9969 11.5077 69.0831 11.5446 69.1754 11.5446H69.92V21.6H65.12V16.6769C65.12 16.6031 65.1015 16.5354 65.0585 16.48C65.0154 16.4185 64.96 16.3754 64.8923 16.3508C64.8246 16.3262 64.7508 16.32 64.6831 16.3385C64.6154 16.3569 64.5538 16.3938 64.5046 16.4431C63.2554 17.8154 62.0062 19.1877 60.7569 20.56C60.6954 20.6277 60.6646 20.7077 60.6646 20.8V25.76C60.6646 25.8523 60.7015 25.9446 60.7692 26.0062C60.8369 26.0738 60.9231 26.1108 61.0154 26.1108C65.2492 26.1108 69.4831 26.1108 73.7169 26.1108C73.8092 26.1108 73.9015 26.0738 73.9631 26.0062C74.0308 25.9385 74.0677 25.8523 74.0677 25.76V7.39692C74.0677 7.30462 74.0308 7.21231 73.9631 7.15077C73.8954 7.08923 73.8092 7.04615 73.7169 7.04615H73.7292Z" fill="url(#paint7_linear_417_86)"/>
<path d="M47.6677 0.947692C47.7354 0.910769 47.7908 0.84923 47.8277 0.781538C47.8585 0.707692 47.8646 0.627692 47.8461 0.553846C47.8277 0.48 47.7846 0.412307 47.7231 0.363076C47.6615 0.313846 47.5815 0.28923 47.5077 0.28923H34.9908C34.8985 0.28923 34.8062 0.326153 34.7446 0.393846C29.7477 5.38461 24.7446 10.3754 19.7477 15.3662C16.3877 11.9631 13.0277 8.56 9.66769 5.16308C9.6 5.09538 9.51385 5.05846 9.41538 5.05846H0.350769C0.283077 5.05846 0.215385 5.07692 0.153846 5.12C0.0984615 5.15692 0.0492308 5.21231 0.0246154 5.28C0 5.34769 -0.00615385 5.41538 0.00615385 5.48308C0.0184615 5.55077 0.0553846 5.61231 0.104615 5.66154C6.58461 12.1169 13.0646 18.5662 19.5508 25.0215C19.6185 25.0892 19.7046 25.1262 19.7969 25.1262C19.8892 25.1262 19.9815 25.0892 20.0431 25.0215C26.7938 18.2892 33.5446 11.5631 40.2892 4.83077C42.7446 3.53846 45.2 2.25231 47.6615 0.96L47.6677 0.947692Z" fill="url(#paint8_linear_417_86)"/>
</g>
<defs>
<linearGradient id="paint0_linear_417_86" x1="25.1682" y1="16.3015" x2="25.1682" y2="39.7169" gradientUnits="userSpaceOnUse">
<stop stop-color="white"/>
<stop offset="1" stop-color="#999999"/>
</linearGradient>
<linearGradient id="paint1_linear_417_86" x1="94.84" y1="15.3123" x2="94.84" y2="26.1108" gradientUnits="userSpaceOnUse">
<stop stop-color="white"/>
<stop offset="1" stop-color="#999999"/>
</linearGradient>
<linearGradient id="paint2_linear_417_86" x1="106.563" y1="7.04615" x2="106.563" y2="26.1046" gradientUnits="userSpaceOnUse">
<stop stop-color="white"/>
<stop offset="1" stop-color="#999999"/>
</linearGradient>
<linearGradient id="paint3_linear_417_86" x1="116.074" y1="7.04615" x2="116.074" y2="26.0985" gradientUnits="userSpaceOnUse">
<stop stop-color="white"/>
<stop offset="1" stop-color="#999999"/>
</linearGradient>
<linearGradient id="paint4_linear_417_86" x1="94.8492" y1="7.04" x2="94.8492" y2="13.4384" gradientUnits="userSpaceOnUse">
<stop stop-color="white"/>
<stop offset="1" stop-color="#999999"/>
</linearGradient>
<linearGradient id="paint5_linear_417_86" x1="82.9969" y1="7.03385" x2="82.9969" y2="26.0985" gradientUnits="userSpaceOnUse">
<stop stop-color="white"/>
<stop offset="1" stop-color="#999999"/>
</linearGradient>
<linearGradient id="paint6_linear_417_86" x1="57.5754" y1="7.04615" x2="57.5754" y2="26.1046" gradientUnits="userSpaceOnUse">
<stop stop-color="white"/>
<stop offset="1" stop-color="#999999"/>
</linearGradient>
<linearGradient id="paint7_linear_417_86" x1="67.3662" y1="7.04615" x2="67.3662" y2="26.1108" gradientUnits="userSpaceOnUse">
<stop stop-color="white"/>
<stop offset="1" stop-color="#999999"/>
</linearGradient>
<linearGradient id="paint8_linear_417_86" x1="23.9283" y1="0.28923" x2="23.9283" y2="25.1262" gradientUnits="userSpaceOnUse">
<stop stop-color="white"/>
<stop offset="1" stop-color="#999999"/>
</linearGradient>
<clipPath id="clip0_417_86">
<rect width="123.077" height="40" fill="white"/>
</clipPath>
</defs>
</svg>
